<?xml version="1.0" encoding="UTF-8" standalone="no"?>
<!DOCTYPE svg PUBLIC "-//W3C//DTD SVG 1.1//EN" "http://www.w3.org/Graphics/SVG/1.1/DTD/svg11.dtd">
<!-- Generated by Microsoft Visio, SVG Export activity-overview.svg Page-1 -->
<svg xmlns="http://www.w3.org/2000/svg" xmlns:xlink="http://www.w3.org/1999/xlink" xmlns:ev="http://www.w3.org/2001/xml-events"
		xmlns:v="http://schemas.microsoft.com/visio/2003/SVGExtensions/" width="7.12403in" height="3.9696in"
		viewBox="0 0 512.93 285.811" xml:space="preserve" color-interpolation-filters="sRGB" class="st14">
	<v:documentProperties v:langID="1033" v:metric="true" v:viewMarkup="false">
		<v:userDefs>
			<v:ud v:nameU="msvNoAutoConnect" v:prompt="" v:val="VT0(0):26"/>
		</v:userDefs>
	</v:documentProperties>

	<style type="text/css">
	<![CDATA[
		.st1 {fill:url(#grad0-4);stroke:#bbb473;stroke-linecap:butt;stroke-width:1.25}
		.st2 {fill:#855230}
		.st3 {stroke:#865331;stroke-linecap:butt;stroke-width:1.25}
		.st4 {fill:#b28547;stroke:#946e3a;stroke-linecap:butt;stroke-width:1.25}
		.st5 {fill:#ffffff;font-family:Franklin Gothic Book;font-size:1.00001em}
		.st6 {font-size:1em}
		.st7 {marker-end:url(#mrkr5-18);stroke:#9b955e;stroke-linecap:butt;stroke-width:1}
		.st8 {fill:#9b955e;fill-opacity:1;stroke:#9b955e;stroke-opacity:1;stroke-width:0.28409090909091}
		.st9 {fill:url(#grad0-4);stroke:#9b955e;stroke-linecap:butt;stroke-width:1.25}
		.st10 {fill:#9b955e;font-family:Franklin Gothic Book;font-size:1.00001em}
		.st11 {fill:#ffffff;stroke:none;stroke-linecap:butt;stroke-width:7.2}
		.st12 {fill:#ada76a;font-family:Franklin Gothic Book;font-size:0.916672em}
		.st13 {fill:#ada76a;font-family:Franklin Gothic Book;font-size:1.00001em}
		.st14 {fill:none;fill-rule:evenodd;font-size:12px;overflow:visible;stroke-linecap:square;stroke-miterlimit:3}
	]]>
	</style>

	<defs id="Patterns_And_Gradients">
		<linearGradient id="grad0-4" x1="0" y1="0" x2="1" y2="0" gradientTransform="rotate(90 0.5 0.5)">
			<stop offset="0.25" stop-color="#cec9a3" stop-opacity="1"/>
			<stop offset="0.97" stop-color="#c4be8c" stop-opacity="1"/>
		</linearGradient>
	</defs>
	<defs id="Markers">
		<g id="lend5">
			<path d="M 2 1 L 0 0 L 1.98117 -0.993387 C 1.67173 -0.364514 1.67301 0.372642 1.98465 1.00043 " style="stroke:none"/>
		</g>
		<marker id="mrkr5-18" class="st8" v:arrowType="5" v:arrowSize="2" v:setback="6.16" refX="-6.16" orient="auto"
				markerUnits="strokeWidth" overflow="visible">
			<use xlink:href="#lend5" transform="scale(-3.52,-3.52) "/>
		</marker>
	</defs>
	<g v:mID="0" v:index="1" v:groupContext="foregroundPage">
		<v:userDefs>
			<v:ud v:nameU="msvThemeOrder" v:val="VT0(0):26"/>
		</v:userDefs>
		<title>Page-1</title>
		<v:pageProperties v:drawingScale="0.0393701" v:pageScale="0.0393701" v:drawingUnits="24" v:shadowOffsetX="8.50394"
				v:shadowOffsetY="-8.50394"/>
		<v:layer v:name="Connector" v:index="0"/>
		<g id="shape1-1" v:mID="1" v:groupContext="shape" transform="translate(39.0925,-232.545)">
			<title>Initial node</title>
			<v:userDefs>
				<v:ud v:nameU="visVersion" v:prompt="" v:val="VT0(15):26"/>
			</v:userDefs>
			<ellipse cx="17.0079" cy="268.803" rx="17.0079" ry="17.0079" class="st1"/>
		</g>
		<g id="shape2-5" v:mID="2" v:groupContext="shape" transform="translate(39.0925,-22.0381)">
			<title>Final node</title>
			<v:userDefs>
				<v:ud v:nameU="visVersion" v:prompt="" v:val="VT0(15):26"/>
			</v:userDefs>
			<path d="M30.61 268.8 A13.6063 13.6063 -180 1 0 3.4 268.8 A13.6063 13.6063 -180 1 0 30.61 268.8 Z" class="st2"/>
			<path d="M34.02 268.8 A17.0079 17.0079 -180 1 0 0 268.8 A17.0079 17.0079 -180 1 0 34.02 268.8" class="st3"/>
			<path d="M30.61 268.8 A13.6063 13.6063 -180 1 0 3.4 268.8 A13.6063 13.6063 -180 1 0 30.61 268.8" class="st3"/>
		</g>
		<g id="shape3-9" v:mID="3" v:groupContext="shape" transform="translate(19.25,-151.781)">
			<title>Action</title>
			<desc>User starts vLab</desc>
			<v:userDefs>
				<v:ud v:nameU="visVersion" v:prompt="" v:val="VT0(15):26"/>
			</v:userDefs>
			<v:textBlock v:margins="rect(4,4,4,4)" v:tabSpace="42.5197"/>
			<v:textRect cx="36.8504" cy="267.409" width="73.71" height="36.8038"/>
			<rect x="0" y="249.007" width="73.7008" height="36.8038" rx="8.50394" ry="8.50394" class="st4"/>
			<text x="9.42" y="263.81" class="st5" v:langID="1048"><v:paragraph v:horizAlign="1"/><v:tabList/>User starts<v:newlineChar/><tspan
						x="24.82" dy="1.2em" class="st6">vLab</tspan></text>		</g>
		<g id="shape4-13" v:mID="4" v:groupContext="shape" v:layerMember="0" transform="translate(49.0138,-232.545)">
			<title>Dynamic connector</title>
			<path d="M7.09 285.81 L7.09 323.61" class="st7"/>
		</g>
		<g id="shape5-19" v:mID="5" v:groupContext="shape" transform="translate(135.694,-151.781)">
			<title>Action.5</title>
			<desc>Wait for user command</desc>
			<v:userDefs>
				<v:ud v:nameU="visVersion" v:prompt="" v:val="VT0(15):26"/>
			</v:userDefs>
			<v:textBlock v:margins="rect(4,4,4,4)" v:tabSpace="42.5197"/>
			<v:textRect cx="41.9229" cy="267.409" width="83.85" height="36.8038"/>
			<rect x="0" y="249.007" width="83.8458" height="36.8038" rx="8.50394" ry="8.50394" class="st4"/>
			<text x="9.6" y="263.81" class="st5" v:langID="1048"><v:paragraph v:horizAlign="1"/><v:tabList/>Wait for user <tspan
						x="16.59" dy="1.2em" class="st6">command</tspan></text>		</g>
		<g id="shape7-23" v:mID="7" v:groupContext="shape" transform="translate(160.609,-81.6122)">
			<title>Decision</title>
			<desc>Which command?</desc>
			<v:userDefs>
				<v:ud v:nameU="visVersion" v:prompt="" v:val="VT0(15):26"/>
			</v:userDefs>
			<v:textBlock v:margins="rect(4,4,4,4)" v:tabSpace="42.5197"/>
			<v:textRect cx="17.0079" cy="297.013" width="101.86" height="22.4037"/>
			<path d="M17.01 285.81 L34.02 268.8 L17.01 251.8 L0 268.8 L17.01 285.81 Z" class="st9"/>
			<text x="-28.42" y="300.61" class="st10" v:langID="1048"><v:paragraph v:horizAlign="1"/><v:tabList/>Which command?</text>		</g>
		<g id="shape8-27" v:mID="8" v:groupContext="shape" v:layerMember="0" transform="translate(92.9508,-163.097)">
			<title>Dynamic connector.8</title>
			<path d="M0 278.72 L36.58 278.72" class="st7"/>
		</g>
		<g id="shape9-32" v:mID="9" v:groupContext="shape" v:layerMember="0" transform="translate(170.531,-151.781)">
			<title>Dynamic connector.9</title>
			<path d="M7.09 285.81 L7.09 315.8" class="st7"/>
		</g>
		<g id="shape10-37" v:mID="10" v:groupContext="shape" v:layerMember="0" transform="translate(160.609,-98.6201)">
			<title>Dynamic connector.10</title>
			<desc>Command to terminate program</desc>
			<v:textBlock v:margins="rect(4,4,4,4)" v:tabSpace="42.5197"/>
			<v:textRect cx="-73.5376" cy="285.811" width="97.63" height="34.4037"/>
			<path d="M0 285.81 L-104.51 285.81 L-104.51 322.22" class="st7"/>
			<rect v:rectContext="textBkgnd" x="-116.971" y="272.611" width="86.867" height="26.4001" class="st11"/>
			<text x="-103.31" y="282.51" class="st12" v:langID="1048"><v:paragraph v:horizAlign="1"/><v:tabList/>Command to<v:newlineChar/><tspan
						x="-116.97" dy="1.2em" class="st6">terminate program</tspan></text>		</g>
		<g id="shape12-45" v:mID="12" v:groupContext="shape" transform="translate(280.202,-151.781)">
			<title>Action.12</title>
			<desc>Stop all VMs</desc>
			<v:userDefs>
				<v:ud v:nameU="visVersion" v:prompt="" v:val="VT0(15):26"/>
			</v:userDefs>
			<v:textBlock v:margins="rect(4,4,4,4)" v:tabSpace="42.5197"/>
			<v:textRect cx="28.3465" cy="267.409" width="56.7" height="36.8038"/>
			<rect x="0" y="249.007" width="56.6929" height="36.8038" rx="8.50394" ry="8.50394" class="st4"/>
			<text x="9.33" y="263.81" class="st5" v:langID="1048"><v:paragraph v:horizAlign="1"/><v:tabList/>Stop all<v:newlineChar/><tspan
						x="17.48" dy="1.2em" class="st6">VMs</tspan></text>		</g>
		<g id="shape13-49" v:mID="13" v:groupContext="shape" transform="translate(280.202,-92.9508)">
			<title>Action.13</title>
			<desc>Start all VMs</desc>
			<v:userDefs>
				<v:ud v:nameU="visVersion" v:prompt="" v:val="VT0(15):26"/>
			</v:userDefs>
			<v:textBlock v:margins="rect(4,4,4,4)" v:tabSpace="42.5197"/>
			<v:textRect cx="28.3465" cy="267.409" width="56.7" height="36.8038"/>
			<rect x="0" y="249.007" width="56.6929" height="36.8038" rx="8.50394" ry="8.50394" class="st4"/>
			<text x="8.66" y="263.81" class="st5" v:langID="1048"><v:paragraph v:horizAlign="1"/><v:tabList/>Start all<v:newlineChar/><tspan
						x="17.48" dy="1.2em" class="st6">VMs</tspan></text>		</g>
		<g id="shape16-53" v:mID="16" v:groupContext="shape" v:layerMember="0" transform="translate(194.625,-98.6201)">
			<title>Dynamic connector.16</title>
			<path d="M0 285.81 L36 285.81 L36 214.25 L79.42 214.25" class="st7"/>
		</g>
		<g id="shape17-58" v:mID="17" v:groupContext="shape" v:layerMember="0" transform="translate(194.625,-97.8998)">
			<title>Dynamic connector.17</title>
			<path d="M0 285.09 L62.36 285.09 L62.36 272.36 L79.42 272.36" class="st7"/>
		</g>
		<g id="shape19-63" v:mID="19" v:groupContext="shape" transform="translate(291.54,-232.545)">
			<title>Merge Node</title>
			<v:userDefs>
				<v:ud v:nameU="visVersion" v:prompt="" v:val="VT0(15):26"/>
			</v:userDefs>
			<path d="M17.01 285.81 L34.02 268.8 L17.01 251.8 L0 268.8 L17.01 285.81 Z" class="st9"/>
		</g>
		<g id="shape20-66" v:mID="20" v:groupContext="shape" v:layerMember="0" transform="translate(301.461,-188.585)">
			<title>Dynamic connector.20</title>
			<path d="M7.09 285.81 L7.09 248.01" class="st7"/>
		</g>
		<g id="shape21-71" v:mID="21" v:groupContext="shape" v:layerMember="0" transform="translate(291.54,-249.553)">
			<title>Dynamic connector.21</title>
			<path d="M0 285.81 L-113.92 285.81 L-113.92 340.62" class="st7"/>
		</g>
		<g id="shape24-76" v:mID="24" v:groupContext="shape" v:layerMember="0" transform="translate(336.894,-104.266)">
			<title>Dynamic connector.24</title>
			<path d="M0 278.72 L19.78 278.72 A2.3622 2.3622 0 1 1 24.5 278.72 L41.49 278.72" class="st7"/>
		</g>
		<g id="shape23-81" v:mID="23" v:groupContext="shape" transform="translate(384.546,-94.3448)">
			<title>Decision.23</title>
			<desc>Are they already started?</desc>
			<v:userDefs>
				<v:ud v:nameU="visVersion" v:prompt="" v:val="VT0(15):26"/>
			</v:userDefs>
			<v:textBlock v:margins="rect(4,4,4,4)" v:tabSpace="42.5197"/>
			<v:textRect cx="17.0079" cy="304.213" width="92.13" height="36.8038"/>
			<path d="M17.01 285.81 L34.02 268.8 L17.01 251.8 L0 268.8 L17.01 285.81 Z" class="st9"/>
			<text x="-23.55" y="300.61" class="st10" v:langID="1048"><v:paragraph v:horizAlign="1"/><v:tabList/>Are they already<v:newlineChar/><tspan
						x="-4" dy="1.2em" class="st6">started</tspan>?</text>		</g>
		<g id="shape25-86" v:mID="25" v:groupContext="shape" transform="translate(409.834,-173.785)">
			<title>Action.25</title>
			<desc>Wait for VMs to start</desc>
			<v:userDefs>
				<v:ud v:nameU="visVersion" v:prompt="" v:val="VT0(15):26"/>
			</v:userDefs>
			<v:textBlock v:margins="rect(4,4,4,4)" v:tabSpace="42.5197"/>
			<v:textRect cx="41.9229" cy="267.409" width="83.85" height="36.8038"/>
			<rect x="0" y="249.007" width="83.8458" height="36.8038" rx="8.50394" ry="8.50394" class="st4"/>
			<text x="9.87" y="263.81" class="st5" v:langID="1048"><v:paragraph v:horizAlign="1"/><v:tabList/>Wait for VMs<v:newlineChar/><tspan
						x="23.83" dy="1.2em" class="st6">to start</tspan></text>		</g>
		<g id="shape26-90" v:mID="26" v:groupContext="shape" v:layerMember="0" transform="translate(418.562,-111.353)">
			<title>Dynamic connector.26</title>
			<desc>NO</desc>
			<v:textBlock v:margins="rect(4,4,4,4)" v:tabSpace="42.5197"/>
			<v:textRect cx="33.1952" cy="271.193" width="60.01" height="22.4037"/>
			<path d="M0 285.81 L33.2 285.81 L33.2 229.54" class="st7"/>
			<rect v:rectContext="textBkgnd" x="25.4667" y="263.993" width="15.4572" height="14.4001" class="st11"/>
			<text x="25.47" y="274.79" class="st13" v:langID="1048"><v:paragraph v:horizAlign="1"/><v:tabList/>NO</text>		</g>
		<g id="shape27-97" v:mID="27" v:groupContext="shape" v:layerMember="0" transform="translate(451.757,-210.589)">
			<title>Dynamic connector.27</title>
			<path d="M0 285.81 L0 246.85 L-120.04 246.85" class="st7"/>
		</g>
		<g id="shape28-102" v:mID="28" v:groupContext="shape" v:layerMember="0" transform="translate(401.554,-128.361)">
			<title>Dynamic connector.28</title>
			<desc>YES</desc>
			<v:textBlock v:margins="rect(4,4,4,4)" v:tabSpace="42.5197"/>
			<v:textRect cx="2.83465" cy="261.566" width="60.01" height="22.4037"/>
			<path d="M0 285.81 L0 164.62 L-69.84 164.62" class="st7"/>
			<rect v:rectContext="textBkgnd" x="-6.93019" y="254.367" width="19.5296" height="14.4001" class="st11"/>
			<text x="-6.93" y="265.17" class="st13" v:langID="1048"><v:paragraph v:horizAlign="1"/><v:tabList/>YES</text>		</g>
		<g id="shape30-109" v:mID="30" v:groupContext="shape" transform="translate(266.625,-19.25)">
			<title>Action.30</title>
			<desc>Execute other commands</desc>
			<v:userDefs>
				<v:ud v:nameU="visVersion" v:prompt="" v:val="VT0(15):26"/>
			</v:userDefs>
			<v:textBlock v:margins="rect(4,4,4,4)" v:tabSpace="42.5197"/>
			<v:textRect cx="41.9229" cy="267.409" width="83.85" height="36.8038"/>
			<rect x="0" y="249.007" width="83.8458" height="36.8038" rx="8.50394" ry="8.50394" class="st4"/>
			<text x="7.15" y="263.81" class="st5" v:langID="1048"><v:paragraph v:horizAlign="1"/><v:tabList/>Execute other<v:newlineChar/><tspan
						x="13.8" dy="1.2em" class="st6">commands</tspan></text>		</g>
		<g id="shape31-113" v:mID="31" v:groupContext="shape" v:layerMember="0" transform="translate(177.617,-81.6122)">
			<title>Dynamic connector.31</title>
			<path d="M0 285.81 L0 329.77 L82.85 329.77" class="st7"/>
		</g>
		<g id="shape32-118" v:mID="32" v:groupContext="shape" v:layerMember="0" transform="translate(347.666,-37.6519)">
			<title>Dynamic connector.32</title>
			<path d="M2.8 285.81 L11.37 285.81 L11.37 80.07" class="st7"/>
		</g>
	</g>
</svg>
