<?xml version="1.0" encoding="UTF-8" standalone="no"?>
<!DOCTYPE svg PUBLIC "-//W3C//DTD SVG 1.1//EN" "http://www.w3.org/Graphics/SVG/1.1/DTD/svg11.dtd">
<!-- Generated by Microsoft Visio, SVG Export activity-overview.svg Activity -->
<svg xmlns="http://www.w3.org/2000/svg" xmlns:xlink="http://www.w3.org/1999/xlink" xmlns:ev="http://www.w3.org/2001/xml-events"
		xmlns:v="http://schemas.microsoft.com/visio/2003/SVGExtensions/" width="7.14139in" height="4.26335in"
		viewBox="0 0 514.18 306.961" xml:space="preserve" color-interpolation-filters="sRGB" class="st14">
	<v:documentProperties v:langID="1033" v:metric="true" v:viewMarkup="false">
		<v:userDefs>
			<v:ud v:nameU="msvNoAutoConnect" v:prompt="" v:val="VT0(0):26"/>
		</v:userDefs>
	</v:documentProperties>

	<style type="text/css">
	<![CDATA[
		.st1 {fill:url(#grad0-4);stroke:#bbb473;stroke-linecap:butt;stroke-width:1.25}
		.st2 {fill:#855230}
		.st3 {stroke:#865331;stroke-linecap:butt;stroke-width:1.25}
		.st4 {fill:#b28547;stroke:#946e3a;stroke-linecap:butt;stroke-width:1.25}
		.st5 {fill:#ffffff;font-family:Franklin Gothic Book;font-size:1.00001em}
		.st6 {font-size:1em}
		.st7 {marker-end:url(#mrkr5-18);stroke:#9b955e;stroke-linecap:butt;stroke-width:1}
		.st8 {fill:#9b955e;fill-opacity:1;stroke:#9b955e;stroke-opacity:1;stroke-width:0.28409090909091}
		.st9 {fill:url(#grad0-4);stroke:#9b955e;stroke-linecap:butt;stroke-width:1.25}
		.st10 {fill:#9b955e;font-family:Franklin Gothic Book;font-size:1.00001em}
		.st11 {fill:#ffffff;stroke:none;stroke-linecap:butt;stroke-width:7.2}
		.st12 {fill:#ada76a;font-family:Franklin Gothic Book;font-size:1.00001em}
		.st13 {fill:#ffffff;font-family:Franklin Gothic Book;font-size:0.916672em}
		.st14 {fill:none;fill-rule:evenodd;font-size:12px;overflow:visible;stroke-linecap:square;stroke-miterlimit:3}
	]]>
	</style>

	<defs id="Patterns_And_Gradients">
		<linearGradient id="grad0-4" x1="0" y1="0" x2="1" y2="0" gradientTransform="rotate(90 0.5 0.5)">
			<stop offset="0.25" stop-color="#cec9a3" stop-opacity="1"/>
			<stop offset="0.97" stop-color="#c4be8c" stop-opacity="1"/>
		</linearGradient>
	</defs>
	<defs id="Markers">
		<g id="lend5">
			<path d="M 2 1 L 0 0 L 1.98117 -0.993387 C 1.67173 -0.364514 1.67301 0.372642 1.98465 1.00043 " style="stroke:none"/>
		</g>
		<marker id="mrkr5-18" class="st8" v:arrowType="5" v:arrowSize="2" v:setback="6.16" refX="-6.16" orient="auto"
				markerUnits="strokeWidth" overflow="visible">
			<use xlink:href="#lend5" transform="scale(-3.52,-3.52) "/>
		</marker>
	</defs>
	<g v:mID="0" v:index="1" v:groupContext="foregroundPage">
		<v:userDefs>
			<v:ud v:nameU="msvThemeOrder" v:val="VT0(0):26"/>
		</v:userDefs>
		<title>Activity</title>
		<v:pageProperties v:drawingScale="0.0393701" v:pageScale="0.0393701" v:drawingUnits="24" v:shadowOffsetX="8.50394"
				v:shadowOffsetY="-8.50394"/>
		<v:layer v:name="Connector" v:index="0"/>
		<g id="shape1-1" v:mID="1" v:groupContext="shape" transform="translate(40.3425,-253.695)">
			<title>Initial node</title>
			<v:userDefs>
				<v:ud v:nameU="visVersion" v:prompt="" v:val="VT0(15):26"/>
			</v:userDefs>
			<ellipse cx="17.0079" cy="289.953" rx="17.0079" ry="17.0079" class="st1"/>
		</g>
		<g id="shape2-5" v:mID="2" v:groupContext="shape" transform="translate(39.0925,-40.4)">
			<title>Final node</title>
			<v:userDefs>
				<v:ud v:nameU="visVersion" v:prompt="" v:val="VT0(15):26"/>
			</v:userDefs>
			<path d="M30.61 289.95 A13.6063 13.6063 -180 1 0 3.4 289.95 A13.6063 13.6063 -180 1 0 30.61 289.95 Z" class="st2"/>
			<path d="M34.02 289.95 A17.0079 17.0079 -180 1 0 0 289.95 A17.0079 17.0079 -180 1 0 34.02 289.95" class="st3"/>
			<path d="M30.61 289.95 A13.6063 13.6063 -180 1 0 3.4 289.95 A13.6063 13.6063 -180 1 0 30.61 289.95" class="st3"/>
		</g>
		<g id="shape3-9" v:mID="3" v:groupContext="shape" transform="translate(20.5,-172.931)">
			<title>Action</title>
			<desc>User starts vLab</desc>
			<v:userDefs>
				<v:ud v:nameU="visVersion" v:prompt="" v:val="VT0(15):26"/>
			</v:userDefs>
			<v:textBlock v:margins="rect(4,4,4,4)" v:tabSpace="42.5197"/>
			<v:textRect cx="36.8504" cy="288.559" width="73.71" height="36.8038"/>
			<rect x="0" y="270.157" width="73.7008" height="36.8038" rx="8.50394" ry="8.50394" class="st4"/>
			<text x="9.42" y="284.96" class="st5" v:langID="1048"><v:paragraph v:horizAlign="1"/><v:tabList/>User starts<v:newlineChar/><tspan
						x="24.82" dy="1.2em" class="st6">vLab</tspan></text>		</g>
		<g id="shape4-13" v:mID="4" v:groupContext="shape" v:layerMember="0" transform="translate(50.2638,-253.695)">
			<title>Dynamic connector</title>
			<path d="M7.09 306.96 L7.09 344.76" class="st7"/>
		</g>
		<g id="shape5-19" v:mID="5" v:groupContext="shape" transform="translate(136.944,-172.931)">
			<title>Action.5</title>
			<desc>Wait for user command</desc>
			<v:userDefs>
				<v:ud v:nameU="visVersion" v:prompt="" v:val="VT0(15):26"/>
			</v:userDefs>
			<v:textBlock v:margins="rect(4,4,4,4)" v:tabSpace="42.5197"/>
			<v:textRect cx="41.9229" cy="288.559" width="83.85" height="36.8038"/>
			<rect x="0" y="270.157" width="83.8458" height="36.8038" rx="8.50394" ry="8.50394" class="st4"/>
			<text x="9.6" y="284.96" class="st5" v:langID="1048"><v:paragraph v:horizAlign="1"/><v:tabList/>Wait for user <tspan
						x="16.59" dy="1.2em" class="st6">command</tspan></text>		</g>
		<g id="shape7-23" v:mID="7" v:groupContext="shape" transform="translate(161.859,-102.762)">
			<title>Decision</title>
			<desc>Which command?</desc>
			<v:userDefs>
				<v:ud v:nameU="visVersion" v:prompt="" v:val="VT0(15):26"/>
			</v:userDefs>
			<v:textBlock v:margins="rect(4,4,4,4)" v:tabSpace="42.5197"/>
			<v:textRect cx="17.0079" cy="318.163" width="101.86" height="22.4037"/>
			<path d="M17.01 306.96 L34.02 289.95 L17.01 272.95 L0 289.95 L17.01 306.96 Z" class="st9"/>
			<text x="-28.42" y="321.76" class="st10" v:langID="1048"><v:paragraph v:horizAlign="1"/><v:tabList/>Which command?</text>		</g>
		<g id="shape8-27" v:mID="8" v:groupContext="shape" v:layerMember="0" transform="translate(94.2008,-184.247)">
			<title>Dynamic connector.8</title>
			<path d="M0 299.87 L36.58 299.87" class="st7"/>
		</g>
		<g id="shape9-32" v:mID="9" v:groupContext="shape" v:layerMember="0" transform="translate(171.781,-172.931)">
			<title>Dynamic connector.9</title>
			<path d="M7.09 306.96 L7.09 336.95" class="st7"/>
		</g>
		<g id="shape12-37" v:mID="12" v:groupContext="shape" transform="translate(281.452,-172.931)">
			<title>Action.12</title>
			<desc>Stop all VMs</desc>
			<v:userDefs>
				<v:ud v:nameU="visVersion" v:prompt="" v:val="VT0(15):26"/>
			</v:userDefs>
			<v:textBlock v:margins="rect(4,4,4,4)" v:tabSpace="42.5197"/>
			<v:textRect cx="28.3465" cy="288.559" width="56.7" height="36.8038"/>
			<rect x="0" y="270.157" width="56.6929" height="36.8038" rx="8.50394" ry="8.50394" class="st4"/>
			<text x="9.33" y="284.96" class="st5" v:langID="1048"><v:paragraph v:horizAlign="1"/><v:tabList/>Stop all<v:newlineChar/><tspan
						x="17.48" dy="1.2em" class="st6">VMs</tspan></text>		</g>
		<g id="shape13-41" v:mID="13" v:groupContext="shape" transform="translate(281.452,-114.101)">
			<title>Action.13</title>
			<desc>Start all VMs</desc>
			<v:userDefs>
				<v:ud v:nameU="visVersion" v:prompt="" v:val="VT0(15):26"/>
			</v:userDefs>
			<v:textBlock v:margins="rect(4,4,4,4)" v:tabSpace="42.5197"/>
			<v:textRect cx="28.3465" cy="288.559" width="56.7" height="36.8038"/>
			<rect x="0" y="270.157" width="56.6929" height="36.8038" rx="8.50394" ry="8.50394" class="st4"/>
			<text x="8.66" y="284.96" class="st5" v:langID="1048"><v:paragraph v:horizAlign="1"/><v:tabList/>Start all<v:newlineChar/><tspan
						x="17.48" dy="1.2em" class="st6">VMs</tspan></text>		</g>
		<g id="shape16-45" v:mID="16" v:groupContext="shape" v:layerMember="0" transform="translate(195.875,-119.77)">
			<title>Dynamic connector.16</title>
			<path d="M0 306.96 L36 306.96 L36 235.4 L79.42 235.4" class="st7"/>
		</g>
		<g id="shape17-50" v:mID="17" v:groupContext="shape" v:layerMember="0" transform="translate(195.875,-119.05)">
			<title>Dynamic connector.17</title>
			<path d="M0 306.24 L62.36 306.24 L62.36 293.51 L79.42 293.51" class="st7"/>
		</g>
		<g id="shape19-55" v:mID="19" v:groupContext="shape" transform="translate(292.79,-253.695)">
			<title>Merge Node</title>
			<v:userDefs>
				<v:ud v:nameU="visVersion" v:prompt="" v:val="VT0(15):26"/>
			</v:userDefs>
			<path d="M17.01 306.96 L34.02 289.95 L17.01 272.95 L0 289.95 L17.01 306.96 Z" class="st9"/>
		</g>
		<g id="shape20-58" v:mID="20" v:groupContext="shape" v:layerMember="0" transform="translate(302.711,-209.735)">
			<title>Dynamic connector.20</title>
			<path d="M7.09 306.96 L7.09 269.16" class="st7"/>
		</g>
		<g id="shape21-63" v:mID="21" v:groupContext="shape" v:layerMember="0" transform="translate(292.79,-270.703)">
			<title>Dynamic connector.21</title>
			<path d="M0 306.96 L-113.92 306.96 L-113.92 361.77" class="st7"/>
		</g>
		<g id="shape24-68" v:mID="24" v:groupContext="shape" v:layerMember="0" transform="translate(338.144,-125.416)">
			<title>Dynamic connector.24</title>
			<path d="M0 299.87 L19.78 299.87 A2.3622 2.3622 0 1 1 24.5 299.87 L41.49 299.87" class="st7"/>
		</g>
		<g id="shape23-73" v:mID="23" v:groupContext="shape" transform="translate(385.796,-115.495)">
			<title>Decision.23</title>
			<desc>Are they already started?</desc>
			<v:userDefs>
				<v:ud v:nameU="visVersion" v:prompt="" v:val="VT0(15):26"/>
			</v:userDefs>
			<v:textBlock v:margins="rect(4,4,4,4)" v:tabSpace="42.5197"/>
			<v:textRect cx="17.0079" cy="325.363" width="92.13" height="36.8038"/>
			<path d="M17.01 306.96 L34.02 289.95 L17.01 272.95 L0 289.95 L17.01 306.96 Z" class="st9"/>
			<text x="-23.55" y="321.76" class="st10" v:langID="1048"><v:paragraph v:horizAlign="1"/><v:tabList/>Are they already<v:newlineChar/><tspan
						x="-4" dy="1.2em" class="st6">started</tspan>?</text>		</g>
		<g id="shape25-78" v:mID="25" v:groupContext="shape" transform="translate(411.084,-194.935)">
			<title>Action.25</title>
			<desc>Wait for VMs to start</desc>
			<v:userDefs>
				<v:ud v:nameU="visVersion" v:prompt="" v:val="VT0(15):26"/>
			</v:userDefs>
			<v:textBlock v:margins="rect(4,4,4,4)" v:tabSpace="42.5197"/>
			<v:textRect cx="41.9229" cy="288.559" width="83.85" height="36.8038"/>
			<rect x="0" y="270.157" width="83.8458" height="36.8038" rx="8.50394" ry="8.50394" class="st4"/>
			<text x="9.87" y="284.96" class="st5" v:langID="1048"><v:paragraph v:horizAlign="1"/><v:tabList/>Wait for VMs<v:newlineChar/><tspan
						x="23.83" dy="1.2em" class="st6">to start</tspan></text>		</g>
		<g id="shape26-82" v:mID="26" v:groupContext="shape" v:layerMember="0" transform="translate(419.812,-132.503)">
			<title>Dynamic connector.26</title>
			<desc>NO</desc>
			<v:textBlock v:margins="rect(4,4,4,4)" v:tabSpace="42.5197"/>
			<v:textRect cx="33.1952" cy="292.343" width="60.01" height="22.4037"/>
			<path d="M0 306.96 L33.2 306.96 L33.2 250.69" class="st7"/>
			<rect v:rectContext="textBkgnd" x="25.4667" y="285.143" width="15.4572" height="14.4001" class="st11"/>
			<text x="25.47" y="295.94" class="st12" v:langID="1048"><v:paragraph v:horizAlign="1"/><v:tabList/>NO</text>		</g>
		<g id="shape27-89" v:mID="27" v:groupContext="shape" v:layerMember="0" transform="translate(453.007,-231.739)">
			<title>Dynamic connector.27</title>
			<path d="M0 306.96 L0 268 L-120.04 268" class="st7"/>
		</g>
		<g id="shape28-94" v:mID="28" v:groupContext="shape" v:layerMember="0" transform="translate(402.804,-149.511)">
			<title>Dynamic connector.28</title>
			<desc>YES</desc>
			<v:textBlock v:margins="rect(4,4,4,4)" v:tabSpace="42.5197"/>
			<v:textRect cx="2.83465" cy="282.716" width="60.01" height="22.4037"/>
			<path d="M0 306.96 L0 185.77 L-69.84 185.77" class="st7"/>
			<rect v:rectContext="textBkgnd" x="-6.93019" y="275.517" width="19.5296" height="14.4001" class="st11"/>
			<text x="-6.93" y="286.32" class="st12" v:langID="1048"><v:paragraph v:horizAlign="1"/><v:tabList/>YES</text>		</g>
		<g id="shape30-101" v:mID="30" v:groupContext="shape" transform="translate(267.875,-40.4)">
			<title>Action.30</title>
			<desc>Execute other commands</desc>
			<v:userDefs>
				<v:ud v:nameU="visVersion" v:prompt="" v:val="VT0(15):26"/>
			</v:userDefs>
			<v:textBlock v:margins="rect(4,4,4,4)" v:tabSpace="42.5197"/>
			<v:textRect cx="41.9229" cy="288.559" width="83.85" height="36.8038"/>
			<rect x="0" y="270.157" width="83.8458" height="36.8038" rx="8.50394" ry="8.50394" class="st4"/>
			<text x="7.15" y="284.96" class="st5" v:langID="1048"><v:paragraph v:horizAlign="1"/><v:tabList/>Execute other<v:newlineChar/><tspan
						x="13.8" dy="1.2em" class="st6">commands</tspan></text>		</g>
		<g id="shape31-105" v:mID="31" v:groupContext="shape" v:layerMember="0" transform="translate(178.867,-102.762)">
			<title>Dynamic connector.31</title>
			<path d="M0 306.96 L0 350.92 L82.85 350.92" class="st7"/>
		</g>
		<g id="shape32-110" v:mID="32" v:groupContext="shape" v:layerMember="0" transform="translate(348.916,-58.8019)">
			<title>Dynamic connector.32</title>
			<path d="M2.8 306.96 L11.37 306.96 L11.37 101.22" class="st7"/>
		</g>
		<g id="shape33-115" v:mID="33" v:groupContext="shape" transform="translate(19.25,-101.968)">
			<title>Action.33</title>
			<desc>Terminate program</desc>
			<v:userDefs>
				<v:ud v:nameU="visVersion" v:prompt="" v:val="VT0(15):26"/>
			</v:userDefs>
			<v:textBlock v:margins="rect(4,4,4,4)" v:tabSpace="42.5197"/>
			<v:textRect cx="36.8504" cy="289.159" width="73.71" height="35.6038"/>
			<rect x="0" y="271.357" width="73.7008" height="35.6038" rx="8.50394" ry="8.50394" class="st4"/>
			<text x="13.32" y="285.26" class="st13" v:langID="1048"><v:paragraph v:horizAlign="1"/><v:tabList/>Terminate <v:newlineChar/><tspan
						x="17.34" dy="1.282em" class="st6">program</tspan></text>		</g>
		<g id="shape35-119" v:mID="35" v:groupContext="shape" v:layerMember="0" transform="translate(161.859,-112.683)">
			<title>Dynamic connector.35</title>
			<path d="M0 299.87 L-62.75 299.87" class="st7"/>
		</g>
		<g id="shape36-124" v:mID="36" v:groupContext="shape" v:layerMember="0" transform="translate(49.0138,-101.968)">
			<title>Dynamic connector.36</title>
			<path d="M7.09 306.96 L7.09 328.35" class="st7"/>
		</g>
	</g>
</svg>
